<?xml version="1.0" encoding="UTF-8"?>
<svg viewBox="0 0 512 511" version="1.1" xmlns="http://www.w3.org/2000/svg" xmlns:xlink="http://www.w3.org/1999/xlink">
    <g id="Page-1" stroke="none" stroke-width="1" fill="none" fill-rule="evenodd">
        <g id="rating" transform="translate(0.000000, -0.000000)" fill="currentColor" fill-rule="nonzero">
            <path d="M82.8769989,310.622 C86.2939989,312.909 90.1579989,314.002 93.9809989,314.002 C100.430999,314.002 106.763999,310.886 110.620999,305.123 C142.937999,256.831 196.960999,228 255.131999,228 C313.130999,228 367.064999,256.699 399.404999,304.77 C405.571999,313.935 417.998999,316.366 427.162999,310.2 C436.327999,304.034 438.758999,291.606 432.592999,282.442 C406.753999,244.036 369.707999,215.697 327.373999,200.537 C352.761999,179.798 368.999999,148.261 368.999999,113 C368.999999,50.691 318.308999,0 255.999999,0 C193.690999,0 142.999999,50.691 142.999999,113 C142.999999,148.008 159.001999,179.347 184.075999,200.091 C141.079999,215.195 103.476999,243.877 77.3779989,282.877 C71.2349989,292.057 73.6969989,304.479 82.8769989,310.622 Z M255.999999,40 C296.251999,40 328.999999,72.748 328.999999,113 C328.999999,153.252 296.251999,186 255.999999,186 C215.747999,186 182.999999,153.252 182.999999,113 C182.999999,72.748 215.747999,40 255.999999,40 Z M335.757999,354.13 L305.941999,375.639 C301.505999,378.839 299.648999,384.512 301.343999,389.69 L313.350999,424.492 C313.857999,426.042 314.052999,427.556 313.987999,429 C313.562999,438.347 301.847999,444.741 293.255999,438.543 L263.440999,417.028 C261.222999,415.428 258.611999,414.628 256.001,414.628 C253.389999,414.628 250.778999,415.428 248.560999,417.028 L218.745999,438.543 C210.153999,444.741 198.382999,438.347 198.010999,429 C197.953999,427.556 198.153999,426.041 198.660999,424.492 L210.656999,389.69 C212.351999,384.512 210.494999,378.839 206.058999,375.639 L176.242999,354.13 C166.322999,346.974 171.420999,330 183.682999,330 L220.536999,330 C226.020999,330 230.880999,327.889 232.574999,322.711 L243.962999,287.684 C245.857999,281.895 250.928999,279 256.001,279 C261.072999,279 266.143999,281.895 268.038999,287.684 L279.426999,322.711 C281.121999,327.889 285.980999,330 291.464999,330 L328.318999,330 C340.579999,330 345.677999,346.974 335.757999,354.13 Z M506.757999,424.13 L476.941999,445.639 C472.505999,448.839 470.648999,454.512 472.343999,459.69 L484.350999,494.492 C484.857999,496.042 485.052999,497.556 484.987999,499 C484.562999,508.347 472.847999,514.741 464.255999,508.543 L434.440999,487.028 C432.222999,485.428 429.611999,484.628 427.001,484.628 C424.389999,484.628 421.778999,485.428 419.560999,487.028 L389.745999,508.543 C381.153999,514.741 369.382999,508.347 369.010999,499 C368.953999,497.556 369.153999,496.041 369.660999,494.492 L381.656999,459.69 C383.351999,454.512 381.494999,448.839 377.058999,445.639 L347.242999,424.13 C337.322999,416.974 342.420999,400 354.682999,400 L391.536999,400 C397.020999,400 401.880999,397.889 403.574999,392.711 L414.962999,357.684 C416.857999,351.895 421.928999,349 427.001,349 C432.072999,349 437.143999,351.895 439.038999,357.684 L450.426999,392.711 C452.121999,397.889 456.980999,400 462.464999,400 L499.318999,400 C511.579999,400 516.677999,416.974 506.757999,424.13 Z M164.757999,424.13 L134.941999,445.639 C130.505999,448.839 128.648999,454.512 130.343999,459.69 L142.350999,494.492 C142.857999,496.042 143.052999,497.556 142.987999,499 C142.562999,508.347 130.847999,514.741 122.255999,508.543 L92.4399989,487.028 C90.2219989,485.428 87.6109989,484.628 85,484.628 C82.3889989,484.628 79.7779989,485.428 77.5599989,487.028 L47.7449989,508.543 C39.1529989,514.741 27.3819989,508.347 27.0099989,499 C26.9529989,497.556 27.1529989,496.041 27.6599989,494.492 L39.6559989,459.69 C41.3509989,454.512 39.4939989,448.839 35.0579989,445.639 L5.24199893,424.13 C-4.67800107,416.974 0.419998925,400 12.6819989,400 L49.5359989,400 C55.0199989,400 59.8799989,397.889 61.5739989,392.711 L72.9619989,357.684 C74.8569989,351.895 79.9279989,349 85,349 C90.0719989,349 95.1429989,351.895 97.0379989,357.684 L108.425999,392.711 C110.120999,397.889 114.979999,400 120.463999,400 L157.317999,400 C169.579999,400 174.677999,416.974 164.757999,424.13 Z" id="Shape"></path>
        </g>
    </g>
</svg>