<svg id="Layer_1" viewBox="0 0 64 64" xmlns="http://www.w3.org/2000/svg" data-name="Layer 1"><rect fill="currentColor" height="14" rx="2" width="14" x="2" y="22"/><rect fill="currentColor" height="14" rx="2" width="14" x="25" y="22"/><rect fill="currentColor" height="14" rx="2" width="14" x="48" y="22"/><g fill="currentColor"><path d="m14 20h-10a4 4 0 0 0 -4 4v10a4 4 0 0 0 4 4h10a4 4 0 0 0 4-4v-10a4 4 0 0 0 -4-4zm-10 14v-10h10v10z"/><path d="m41 34v-10a4 4 0 0 0 -4-4h-10a4 4 0 0 0 -4 4v10a4 4 0 0 0 4 4h10a4 4 0 0 0 4-4zm-14-10h10v10h-10z"/><path d="m60 20h-10a4 4 0 0 0 -4 4v10a4 4 0 0 0 4 4h10a4 4 0 0 0 4-4v-10a4 4 0 0 0 -4-4zm-10 14v-10h10v10z"/><path d="m30.33 10.43a2.1 2.1 0 0 0 -3.12.68 2 2 0 0 0 .9 2.68l4 2a2 2 0 0 0 2.49-.59l3-4a2 2 0 0 0 -.4-2.8 2.09 2.09 0 0 0 -3.08.77 14 14 0 0 0 -27.12 4.83 2 2 0 0 0 4 0 10 10 0 0 1 19.33-3.57z"/><path d="m57.6 42.8a2 2 0 0 0 -2.49-.59l-4 2a2 2 0 0 0 -.9 2.68 2.1 2.1 0 0 0 3.12.68 10 10 0 0 1 -19.33-3.57 2 2 0 0 0 -4 0 14 14 0 0 0 27.12 4.83 2.09 2.09 0 0 0 3.08.77 2 2 0 0 0 .4-2.8z"/><path d="m52.59 15.41a2 2 0 0 0 2.61.19l8-6a2 2 0 1 0 -2.4-3.2l-6.61 5-1.78-1.81a2 2 0 0 0 -2.82 2.82z"/><path d="m14.2 45.4-4-3a2 2 0 0 0 -2.4 0l-4 3a2 2 0 0 0 -.4 2.8c.97 1.32 2.6.8 3.6-.2v6a2 2 0 0 0 4 0v-6c1 1 2.63 1.52 3.6.2a2 2 0 0 0 -.4-2.8z"/></g><circle cx="9" cy="62" fill="currentColor" r="2"/></svg>