<?xml version="1.0" encoding="UTF-8"?>
<svg viewBox="0 0 512 512" version="1.1" xmlns="http://www.w3.org/2000/svg" xmlns:xlink="http://www.w3.org/1999/xlink">
    <g id="Page-1" stroke="none" stroke-width="1" fill="none" fill-rule="evenodd">
        <g id="printer" fill="currentColor" fill-rule="nonzero">
            <path d="M458.666667,384 L394.666667,384 C388.778667,384 384,379.221333 384,373.333333 C384,367.445333 388.778667,362.666667 394.666667,362.666667 L458.666667,362.666667 C476.309333,362.666667 490.666667,348.309333 490.666667,330.666667 L490.666667,181.333333 C490.666667,163.690667 476.309333,149.333333 458.666667,149.333333 L53.3333333,149.333333 C35.6906667,149.333333 21.3333333,163.690667 21.3333333,181.333333 L21.3333333,330.666667 C21.3333333,348.309333 35.6906667,362.666667 53.3333333,362.666667 L117.333333,362.666667 C123.221333,362.666667 128,367.445333 128,373.333333 C128,379.221333 123.221333,384 117.333333,384 L53.3333333,384 C23.9146667,384 0,360.064 0,330.666667 L0,181.333333 C0,151.936 23.9146667,128 53.3333333,128 L458.666667,128 C488.085333,128 512,151.936 512,181.333333 L512,330.666667 C512,360.064 488.085333,384 458.666667,384 Z" id="Path"></path>
            <path d="M309.333333,448 L181.333333,448 C175.445333,448 170.666667,443.221333 170.666667,437.333333 C170.666667,431.445333 175.445333,426.666667 181.333333,426.666667 L309.333333,426.666667 C315.221333,426.666667 320,431.445333 320,437.333333 C320,443.221333 315.221333,448 309.333333,448 Z" id="Path"></path>
            <path d="M309.333333,405.333333 L181.333333,405.333333 C175.445333,405.333333 170.666667,400.554667 170.666667,394.666667 C170.666667,388.778667 175.445333,384 181.333333,384 L309.333333,384 C315.221333,384 320,388.778667 320,394.666667 C320,400.554667 315.221333,405.333333 309.333333,405.333333 Z" id="Path"></path>
            <path d="M224,362.666667 L181.333333,362.666667 C175.445333,362.666667 170.666667,357.888 170.666667,352 C170.666667,346.112 175.445333,341.333333 181.333333,341.333333 L224,341.333333 C229.888,341.333333 234.666667,346.112 234.666667,352 C234.666667,357.888 229.888,362.666667 224,362.666667 Z" id="Path"></path>
            <path d="M394.666667,149.333333 C388.778667,149.333333 384,144.554667 384,138.666667 L384,53.3333333 C384,35.6906667 369.642667,21.3333333 352,21.3333333 L160,21.3333333 C142.357333,21.3333333 128,35.6906667 128,53.3333333 L128,138.666667 C128,144.554667 123.221333,149.333333 117.333333,149.333333 C111.445333,149.333333 106.666667,144.554667 106.666667,138.666667 L106.666667,53.3333333 C106.666667,23.936 130.581333,0 160,0 L352,0 C381.418667,0 405.333333,23.936 405.333333,53.3333333 L405.333333,138.666667 C405.333333,144.554667 400.554667,149.333333 394.666667,149.333333 Z" id="Path"></path>
            <path d="M352,512 L160,512 C130.581333,512 106.666667,488.064 106.666667,458.666667 L106.666667,288 C106.666667,282.112 111.445333,277.333333 117.333333,277.333333 L394.666667,277.333333 C400.554667,277.333333 405.333333,282.112 405.333333,288 L405.333333,458.666667 C405.333333,488.064 381.418667,512 352,512 Z M128,298.666667 L128,458.666667 C128,476.309333 142.357333,490.666667 160,490.666667 L352,490.666667 C369.642667,490.666667 384,476.309333 384,458.666667 L384,298.666667 L128,298.666667 Z" id="Shape"></path>
        </g>
    </g>
</svg>